<svg width="1354" height="297" viewBox="0 0 1354 297" fill="none" xmlns="http://www.w3.org/2000/svg">
<path d="M533.498 163.69C531.561 163.842 530.194 163.15 529.169 161.516C527.916 159.786 527.574 157.414 528.143 154.283L531.447 140.882C531.675 139.607 532.7 138.383 534.523 137.097C536.46 135.573 538.738 134.594 541.586 134.37L558.788 133.016C561.067 132.837 562.776 133.617 563.915 135.241C565.054 136.751 565.168 139.028 564.485 141.938L561.864 152.087C561.181 156.026 559.586 158.779 557.307 160.33C555.029 161.424 552.523 162.078 549.675 162.302L533.27 163.593L533.498 163.69Z" fill="#B1D329"/>
<path d="M575.306 136.401L600.141 36.8565C601.736 30.4458 604.014 26.0384 606.862 23.6431C609.938 21.2298 615.065 19.7978 622.356 19.224L664.621 15.8977C671.57 15.3508 677.038 16.5203 680.798 19.4241C684.671 22.4332 685.924 27.934 684.329 36.0587L679.545 58.833L646.507 61.4331L650.608 44.4263L631.697 45.9146L611.191 130.377L629.305 128.952L632.837 115.989L621.786 116.859L629.647 87.329L672.709 83.9399L659.836 136.376C658.583 140.818 657.216 144.353 655.849 146.746C654.368 149.148 652.659 150.997 650.836 152.169C648.786 153.473 646.507 154.338 644.001 154.878C641.495 155.304 638.533 155.537 635.115 155.577L592.28 158.949C582.255 159.966 576.331 158.261 574.736 154.044C573.369 149.809 573.711 143.84 575.534 136.155L575.306 136.401Z" fill="#B1D329"/>
<path d="M672.709 128.735L697.544 29.1906C699.139 22.78 701.417 18.3725 704.265 15.9772C707.341 13.5639 712.468 12.1319 719.759 11.5581L762.024 8.23177C768.973 7.68486 774.441 8.85436 778.2 11.7582C782.074 14.7673 783.327 20.2681 781.732 28.3928L776.947 51.1671L743.91 53.7672L748.011 36.7604L729.1 38.2487L708.594 122.711L726.708 121.286L730.239 108.323L719.189 109.193L727.05 79.6631L770.112 76.274L757.239 128.711C755.986 133.152 754.619 136.687 753.252 139.08C751.771 141.483 750.062 143.331 748.239 144.503C746.188 145.807 743.91 146.672 741.404 147.212C738.897 147.638 735.935 147.871 732.518 147.912L689.683 151.283C679.658 152.3 673.734 150.595 672.139 146.378C670.772 142.144 671.114 136.174 672.937 128.489L672.709 128.735Z" fill="#B1D329"/>
<path d="M0 295.953L56.961 58.0076L115.061 53.435L98.8843 116.53L134.656 51.8928L191.731 47.4009L124.631 169.356L133.972 285.409L75.986 289.973L73.5936 223.767L57.4167 291.434L0 295.953V295.953Z" fill="white"/>
<path d="M150.947 284.074L202.896 77.3771C205.972 66.9646 209.731 58.7838 214.174 52.8347C218.503 47.1231 227.389 43.6812 240.718 42.6322L303.033 37.7278C311.008 37.1002 317.273 37.1785 321.602 37.9805C326.501 38.852 330.033 40.7453 332.197 43.5461C334.248 47.0414 335.159 52.1121 334.817 58.6526C334.248 64.5254 332.425 72.5538 329.691 82.4823L282.983 274.025L223.971 278.669L248.464 183.151L232.401 184.415L209.275 279.826L150.947 283.959V284.074ZM245.958 136.039L260.198 134.918L271.705 87.1602L256.097 88.3885L245.958 136.039Z" fill="white"/>
<path d="M304.741 272.427L363.297 33.3278L421.853 28.7194L362.727 267.863L304.855 272.418L304.741 272.427Z" fill="white"/>
<path d="M379.588 266.423L439.169 27.7L552.635 18.77L538.737 66.2592L485.991 70.4104L473.688 118.688L527.801 114.429L515.269 162.497L461.156 166.755L437.688 261.85L379.474 266.432L379.588 266.423Z" fill="white"/>
<g opacity="0.3">
<path d="M520.763 232.658C524.426 230.097 527.313 225.839 528.449 221.352C530.683 212.529 526.374 207.225 517.915 207.89L502.15 209.131L488.895 261.476L505.121 260.199C514.426 259.467 522.324 252.982 524.691 243.635C525.978 238.55 524.539 234.412 520.763 232.658ZM514.257 216.68C518.41 216.353 519.802 218.295 518.742 222.483C517.662 226.745 515.153 229.215 511.308 229.517L506.155 229.923L509.412 217.061L514.257 216.68ZM505.857 251.64L500.55 252.057L503.978 238.522L509.207 238.111C513.975 237.736 516.156 239.836 515.001 244.397C513.884 248.809 510.778 251.252 505.857 251.64Z" fill="#F1F1F1"/>
<path d="M554.978 256.275L564.437 255.531L568.565 239.229L590.535 202.175L580.691 202.95L571.639 219.053C570.417 221.201 568.298 225.105 566.962 227.702L566.731 227.721C566.683 225.233 566.495 221.51 566.295 219.62L565.157 204.172L555.314 204.947L559.106 239.973L554.978 256.275Z" fill="#F1F1F1"/>
<path d="M687.891 194.513L674.013 215.686C672.158 218.544 669.024 223.481 667.783 225.704L667.475 225.728C667.332 223.614 666.699 218.973 666.246 216.297L662.667 196.498L653.132 197.249L639.877 249.594L649.105 248.867L653.252 232.491C654.574 226.377 655.858 220.413 657.046 214.53L657.468 214.35C657.985 218.56 658.484 223.138 658.983 227.716L660.249 236.704L669.631 235.965L675.594 226.408C678.478 221.564 681.44 216.714 684.076 212.256L684.423 212.375C682.619 218.307 680.874 224.307 679.09 230.457L674.943 246.834L684.248 246.101L697.504 193.756L687.891 194.513Z" fill="#F1F1F1"/>
<path d="M730.316 243.355C740.929 242.52 748.92 235.368 751.722 224.301L756.456 205.607C759.259 194.539 754.638 188.38 744.026 189.216C733.337 190.057 725.345 197.208 722.543 208.276L717.809 226.97C715.006 238.038 719.627 244.197 730.316 243.355ZM732.57 234.457C727.802 234.832 726.136 231.885 727.575 226.202L732.309 207.507C733.748 201.824 737.005 198.489 741.772 198.114C746.54 197.739 748.129 200.692 746.69 206.375L741.956 225.07C740.517 230.753 737.338 234.081 732.57 234.457Z" fill="#F1F1F1"/>
<path d="M800.232 236.973L810.613 236.156L804.807 217.119C810.911 214.146 815.273 208.526 817.205 200.899C819.913 190.205 815.409 184.477 804.874 185.306L790.109 186.468L776.854 238.813L786.312 238.069L790.933 219.823L795.239 219.484L800.232 236.973ZM797.352 194.473L802.581 194.061C807.118 193.704 808.86 196.352 807.496 201.736C806.114 207.195 802.915 210.305 798.378 210.662L793.148 211.074L797.352 194.473Z" fill="#F1F1F1"/>
<path d="M851.961 233.782C862.112 232.983 869.606 226.603 872.525 215.966L875.877 202.731L859.189 204.044L857.125 212.195L864.585 211.608L863.297 216.693C861.953 222.002 858.905 224.514 854.368 224.871C849.984 225.216 848.111 223.091 849.493 217.633L854.757 196.844C856.139 191.385 859.11 188.879 863.417 188.541C867.723 188.202 869.231 190.282 868.118 195.573L877.577 194.828C879.881 184.24 875.667 178.855 865.67 179.642C855.365 180.453 847.736 186.77 844.991 197.613L839.726 218.401C837 229.169 841.733 234.587 851.961 233.782Z" fill="#F1F1F1"/>
<path d="M908.514 219.95L911.979 206.265L928.128 204.994L930.249 196.619L914.1 197.89L917.376 184.954L934.986 183.568L937.183 174.893L910.113 177.024L896.858 229.369L924.697 227.178L926.893 218.503L908.514 219.95Z" fill="#F1F1F1"/>
<path d="M990.463 170.7L986.43 186.628C985.218 191.414 983.616 199.821 982.89 205.668L982.602 205.911C982.109 202.798 981.535 198.812 981.003 195.556L976.006 171.838L966.624 172.576L953.369 224.921L962.674 224.189L966.48 209.158C967.862 203.7 969.654 194.837 970.458 188.984L970.745 188.742C971.222 192.515 971.932 197.15 972.506 201.135L977.131 223.051L986.513 222.313L999.768 169.968L990.463 170.7Z" fill="#F1F1F1"/>
<path d="M1030.12 219.907C1040.5 219.09 1048.07 212.118 1050.15 203.892C1054.32 187.441 1032.48 188.867 1034.79 179.744C1035.54 176.753 1038.11 174.645 1041.65 174.367C1045.26 174.082 1046.91 175.932 1045.92 180.113L1055.61 179.351C1057.9 170.01 1053.52 164.712 1043.9 165.468C1034.37 166.219 1027.2 172.499 1025.23 180.276C1021.24 196.054 1042.73 195.095 1040.33 204.592C1039.48 207.957 1036.77 210.589 1032.47 210.927C1028.39 211.248 1026.4 209.279 1027.52 204.574L1017.83 205.337C1015.35 215.426 1020.2 220.688 1030.12 219.907Z" fill="#F1F1F1"/>
<path d="M1109.46 161.335L1104.01 182.871L1091.01 183.894L1096.46 162.358L1087 163.102L1073.75 215.447L1083.21 214.703L1088.79 192.643L1101.79 191.62L1096.2 213.68L1105.74 212.929L1118.99 160.584L1109.46 161.335Z" fill="#F1F1F1"/>
<path d="M1177.43 155.985L1146.05 158.455L1143.84 167.204L1154.68 166.351L1143.64 209.946L1153.33 209.184L1164.37 165.588L1175.21 164.735L1177.43 155.985Z" fill="#F1F1F1"/>
<path d="M1202.33 196.826L1205.8 183.142L1221.94 181.871L1224.07 173.495L1207.92 174.766L1211.19 161.83L1228.8 160.444L1231 151.769L1203.93 153.9L1190.67 206.245L1218.51 204.054L1220.71 195.38L1202.33 196.826Z" fill="#F1F1F1"/>
<path d="M1270.56 199.957L1280.94 199.14L1275.14 180.103C1281.24 177.13 1285.6 171.51 1287.54 163.883C1290.24 153.19 1285.74 147.461 1275.21 148.29L1260.44 149.452L1247.18 201.797L1256.64 201.053L1261.26 182.807L1265.57 182.468L1270.56 199.957ZM1267.68 157.457L1272.91 157.045C1277.45 156.688 1279.19 159.336 1277.83 164.72C1276.45 170.179 1273.25 173.289 1268.71 173.646L1263.48 174.058L1267.68 157.457Z" fill="#F1F1F1"/>
<path d="M1344.69 142.821L1340.66 158.749C1339.45 163.535 1337.85 171.943 1337.12 177.79L1336.83 178.032C1336.34 174.92 1335.77 170.934 1335.24 167.678L1330.24 143.959L1320.86 144.698L1307.6 197.043L1316.91 196.31L1320.71 181.28C1322.09 175.821 1323.89 166.959 1324.69 161.106L1324.98 160.863C1325.45 164.637 1326.16 169.271 1326.74 173.257L1331.36 195.172L1340.74 194.434L1354 142.089L1344.69 142.821Z" fill="#F1F1F1"/>
</g>
</svg>
