<svg width="59" height="88" viewBox="0 0 59 88" fill="none" xmlns="http://www.w3.org/2000/svg">
<path d="M5.23198 0.683594H53.7452C56.3886 0.683594 58.41 2.70503 58.41 5.34838V82.9384C58.41 85.5818 56.3886 87.6032 53.7452 87.6032H5.23198C2.58863 87.6032 0.567261 85.5818 0.567261 82.9384V5.34838C0.567261 2.70503 2.58863 0.683594 5.23198 0.683594Z" fill="white"/>
<path d="M5 8.5C5 10.4362 6.50598 12 8.37052 12H11.1853L12.8436 7.86702H12.8347L12.8616 7.82048H8.73805L8.04781 9.09574L11.006 9.10505L10.2978 10.8551H8.40637C7.15139 10.8551 6.13845 9.80319 6.13845 8.5C6.13845 7.19681 7.15139 6.14495 8.40637 6.14495H12.1982L12.0279 6.57314L13.3635 6.59176L14 5H8.37052C6.50598 5 5 6.57314 5 8.5Z" fill="#BE1E2D"/>
<path d="M55 80.5C55 78.5638 53.494 77 51.6295 77L48.8147 77L47.1564 81.133L47.1653 81.133L47.1384 81.1795L51.262 81.1795L51.9522 79.9043L48.994 79.8949L49.7022 78.1449L51.5936 78.1449C52.8486 78.1449 53.8616 79.1968 53.8616 80.5C53.8616 81.8032 52.8486 82.8551 51.5936 82.8551L47.8018 82.8551L47.9721 82.4269L46.6365 82.4082L46 84L51.6295 84C53.494 84 55 82.4269 55 80.5Z" fill="#BE1E2D"/>
<path d="M44.4161 56.351C39.4403 60.8602 32.9097 69.7233 29.6444 76.5649C26.3791 69.8788 19.8485 60.8602 14.8727 56.351C19.8485 51.8417 26.3791 42.9788 29.6444 36.1372C32.9097 42.8233 39.4403 51.8417 44.4161 56.351Z" fill="#BE1E2D"/>
<path d="M38.1963 21.6756C38.1963 22.9196 38.0408 24.0079 37.5743 25.0963C37.1078 26.1848 36.4859 26.9623 35.7084 27.7398C34.9309 28.5172 33.998 28.9837 33.065 29.4502C32.1321 29.9167 30.8882 30.0722 29.7997 30.0722C28.0893 30.0722 26.5344 29.7611 25.135 29.1391C23.7356 28.5172 22.3362 27.5843 21.0922 26.0294L24.202 22.9195C24.202 22.9195 24.6685 23.5415 24.9795 23.8525C25.2905 24.1635 25.6015 24.4744 26.0679 24.7854C26.5344 25.0964 26.8454 25.2519 27.4674 25.4074C28.0893 25.5629 28.5558 25.7183 29.1778 25.7183C29.7997 25.7183 30.5772 25.7184 31.0436 25.4074C31.6656 25.2519 32.1321 24.9409 32.5986 24.6299C33.065 24.3189 33.376 23.8525 33.5315 23.386C33.687 22.9196 33.8425 22.453 33.8425 21.831C33.8425 21.2091 33.8425 20.5871 33.376 20.1206C33.065 19.6541 32.754 19.1878 32.2876 18.8768C31.8211 18.5658 31.3546 18.2548 30.7327 18.0993C30.1107 17.9438 29.4887 17.7883 28.8668 17.7883C28.0893 17.7883 27.4673 17.7883 26.8454 18.0993C26.2234 18.2548 25.6015 18.5657 24.824 19.1877L22.4916 16.8553L23.5801 6.43744H36.6413V10.4802H27.1564L26.6899 14.834C26.6899 14.834 27.7783 14.3675 28.4003 14.3675C29.0223 14.3675 29.6442 14.212 30.1107 14.212C31.3546 14.212 32.4431 14.3675 33.5315 14.834C34.6199 15.145 35.3974 15.7669 36.1749 16.3889C36.9523 17.0108 37.5743 17.9438 37.8853 18.8768C38.3517 19.8097 38.5072 20.8981 38.5072 21.9866L38.1963 21.6756Z" fill="#BE1E2D"/>
</svg>
