<svg width="20" height="20" viewBox="0 0 20 20" fill="none" xmlns="http://www.w3.org/2000/svg">
<g clip-path="url(#clip0_2766_15984)">
<path d="M10 2.50195C10 1.12125 11.1193 0.00195312 12.5 0.00195312C13.8807 0.00195312 15 1.12125 15 2.50195C15 3.14223 14.7593 3.72633 14.3634 4.16863H17.0833C18.2537 4.16863 18.8389 4.16863 19.2592 4.44953C19.4412 4.57113 19.5975 4.72738 19.7191 4.90937C20 5.32969 20 5.91488 20 7.08527C20 7.25664 20 7.41551 19.9991 7.56313C19.9965 7.99902 19.6385 8.33527 19.2027 8.33527H0.797383C0.361484 8.33527 0.00351563 7.99898 0.000898438 7.56313C0 7.41551 0 7.25668 0 7.08527C0 5.91488 0 5.32969 0.280898 4.90934C0.4025 4.72734 0.55875 4.57109 0.740742 4.44949C1.16113 4.16859 1.74633 4.16859 2.91668 4.16859H5.6366C5.2407 3.72633 5 3.14223 5 2.50195C5 1.12125 6.1193 0.00195312 7.5 0.00195312C8.88074 0.00195312 10 1.12125 10 2.50195Z" fill="#151617"/>
<path d="M18.3321 10.8374C18.3333 10.377 17.96 10.002 17.4995 10.002H11.6668C11.2066 10.002 10.8335 10.375 10.8335 10.8353V19.1668C10.8335 19.6275 11.208 20.0015 11.6687 19.9979C14.4303 19.9764 16.0476 19.84 16.9947 18.9721C18.1999 17.8679 18.3201 15.5795 18.3321 10.8374Z" fill="#151617"/>
<path d="M9.16664 10.8353C9.16664 10.375 8.79356 10.002 8.33332 10.002H2.50059C2.04016 10.002 1.6668 10.377 1.66797 10.8374C1.67996 15.5795 1.8002 17.8679 3.00539 18.9721C3.95254 19.8401 5.56985 19.9765 8.33137 19.998C8.79215 20.0016 9.16664 19.6275 9.16664 19.1668V10.8353Z" fill="#151617"/>
</g>
<defs>
<clipPath id="clip0_2766_15984">
<rect width="20" height="20" fill="white"/>
</clipPath>
</defs>
</svg>
